<svg width="29" height="35" viewBox="0 0 29 35" fill="none" xmlns="http://www.w3.org/2000/svg">
<path d="M21.3279 8.69838C21.3279 8.90076 21.3208 9.10314 21.3065 9.30552C21.2994 9.40671 21.2887 9.50429 21.278 9.60548C21.2709 9.66691 21.2923 9.79701 21.278 9.60909C21.2816 9.67053 21.2602 9.74642 21.2495 9.80424C21.1854 10.2054 21.0892 10.6029 20.9645 10.9896C20.9039 11.1739 20.8362 11.3546 20.7685 11.5317C20.7079 11.6871 20.8362 11.3835 20.7649 11.5353C20.7471 11.5787 20.7257 11.622 20.7079 11.6654C20.6616 11.7666 20.6153 11.8678 20.5618 11.9654C20.3908 12.3051 20.1949 12.6303 19.9775 12.9411C19.9312 13.0098 19.8777 13.1182 19.81 13.1688C19.9348 13.0712 19.8492 13.1182 19.8065 13.1724C19.778 13.2086 19.7495 13.2447 19.7174 13.2808C19.5891 13.4398 19.4537 13.5916 19.3112 13.7362C19.183 13.8735 19.0476 14.0036 18.9086 14.1301C18.8373 14.1915 18.7696 14.2566 18.6984 14.3144C18.6628 14.3433 18.6271 14.3759 18.5915 14.4048C18.5666 14.4228 18.5416 14.4445 18.5167 14.4626C18.5986 14.3975 18.6093 14.3903 18.5487 14.4373C18.2459 14.665 17.9359 14.8746 17.6081 15.0553C17.4442 15.1492 17.2767 15.2324 17.1057 15.3155C17.063 15.3372 17.0202 15.3552 16.9774 15.3733C16.8242 15.442 17.1271 15.3119 16.9739 15.3769C16.8706 15.4203 16.7672 15.46 16.6639 15.4998C16.2862 15.6371 15.9014 15.7455 15.5095 15.825C15.4133 15.8431 15.3171 15.8612 15.2209 15.8756C15.1781 15.8829 15.1211 15.9009 15.0748 15.8973C15.2173 15.9082 15.1746 15.8829 15.1175 15.8901C14.9038 15.9118 14.69 15.9335 14.4762 15.9407C14.0593 15.9551 13.6496 15.9335 13.2363 15.8901C13.0652 15.872 13.4002 15.9154 13.2327 15.8901C13.1828 15.8829 13.1365 15.8756 13.0866 15.8684C12.9904 15.854 12.8942 15.8359 12.8016 15.8142C12.5985 15.7708 12.3954 15.7202 12.1923 15.6624C12.0106 15.6082 11.8289 15.5504 11.6472 15.4817C11.5723 15.4528 11.4975 15.4239 11.4263 15.395C11.412 15.3878 11.3977 15.3841 11.3835 15.3769C11.3122 15.348 11.3265 15.3516 11.4227 15.395C11.3764 15.395 11.2909 15.3372 11.2517 15.3155C10.8954 15.1492 10.5533 14.9577 10.2255 14.7372C10.1471 14.6867 10.0687 14.6324 9.99392 14.5782C9.92622 14.5313 9.81933 14.477 9.76945 14.4084C9.86565 14.5349 9.81933 14.4481 9.76589 14.4048C9.73026 14.3759 9.69462 14.3469 9.65899 14.3144C9.57705 14.2421 9.49153 14.1699 9.41315 14.0976C9.13523 13.8446 8.87869 13.57 8.63997 13.2808C8.61147 13.2447 8.5794 13.2086 8.55089 13.1724C8.50814 13.1182 8.41906 13.0712 8.54733 13.1688C8.4832 13.1182 8.42975 13.0062 8.37987 12.9411C8.26229 12.7749 8.15184 12.6014 8.04851 12.4243C7.95231 12.2617 7.85967 12.0955 7.77772 11.922C7.73496 11.8353 7.69577 11.7521 7.65301 11.6654C7.63163 11.622 7.61382 11.5787 7.596 11.5353C7.56394 11.463 7.57106 11.4775 7.61026 11.5751C7.59957 11.5462 7.58532 11.5172 7.57463 11.4847C7.43211 11.1269 7.31453 10.7547 7.22545 10.3789C7.17913 10.1873 7.13994 9.99578 7.11143 9.80063C7.10431 9.75003 7.09718 9.70305 7.09006 9.65246C7.06511 9.47899 7.10787 9.82231 7.09006 9.64884C7.07937 9.5332 7.06511 9.41755 7.05799 9.30191C7.02592 8.88269 7.02948 8.45986 7.06155 8.04065C7.06868 7.93946 7.07937 7.84188 7.09006 7.74069C7.10787 7.56722 7.06511 7.90693 7.09006 7.73708C7.09718 7.68648 7.10431 7.6395 7.11143 7.58891C7.14706 7.3793 7.18626 7.16969 7.2397 6.9637C7.33234 6.58785 7.45348 6.21923 7.596 5.86145C7.65658 5.70605 7.52831 6.00962 7.59957 5.85784C7.61738 5.81447 7.63876 5.7711 7.65658 5.72774C7.69577 5.641 7.73853 5.55427 7.78128 5.47115C7.87392 5.28684 7.97368 5.10614 8.07701 4.92906C8.17321 4.76643 8.27654 4.60742 8.387 4.45202C8.43331 4.38336 8.48676 4.27494 8.55446 4.22434C8.42975 4.32192 8.51526 4.27494 8.55802 4.22073C8.59721 4.17014 8.63641 4.12315 8.6756 4.07617C8.91432 3.78706 9.17799 3.51602 9.4559 3.26304C9.52716 3.2016 9.59486 3.13655 9.66612 3.07873C9.70175 3.04982 9.73738 3.01729 9.77301 2.98838C9.82646 2.94502 9.87278 2.85467 9.77657 2.98477C9.82646 2.91972 9.93691 2.86551 10.001 2.81491C10.0901 2.74986 10.1792 2.68843 10.2718 2.62699C10.5996 2.41016 10.9452 2.21862 11.3015 2.05599C11.3301 2.04153 11.3977 1.99817 11.4298 1.99817C11.4013 2.00901 11.3728 2.02347 11.3479 2.03431C11.3764 2.02347 11.4049 2.00901 11.4369 1.99817C11.5118 1.96926 11.583 1.94034 11.6578 1.91143C11.8503 1.83915 12.0498 1.7741 12.2493 1.71628C12.4346 1.66207 12.6234 1.61871 12.8123 1.57895C12.9085 1.56088 13.0047 1.54281 13.0973 1.52474C13.1472 1.51752 13.1935 1.51029 13.2434 1.50306C13.3218 1.49222 13.3075 1.49222 13.2006 1.51029C13.2327 1.50667 13.2648 1.50306 13.2968 1.49945C13.7102 1.45247 14.1235 1.43801 14.5403 1.45608C14.7292 1.46331 14.918 1.48138 15.1069 1.50306C15.171 1.51029 15.2529 1.4886 15.089 1.49945C15.1318 1.49583 15.1888 1.5139 15.2351 1.52113C15.3456 1.5392 15.4596 1.56088 15.57 1.58257C15.962 1.66207 16.3468 1.7741 16.7209 1.91505C16.81 1.94757 16.8991 1.98371 16.9846 2.01985C17.1378 2.08129 16.8385 1.95119 16.9881 2.02347C17.0309 2.04153 17.0736 2.06322 17.1164 2.08129C17.3017 2.16802 17.4834 2.26198 17.6615 2.36317C17.8254 2.45714 17.9858 2.55471 18.1426 2.65952C18.2067 2.70288 18.2708 2.74625 18.335 2.79323C18.4133 2.84744 18.5416 2.91249 18.5986 2.98838C18.5024 2.8619 18.5487 2.94863 18.6022 2.992C18.6378 3.02091 18.6734 3.04982 18.7091 3.08234C18.7803 3.14378 18.8516 3.20522 18.9193 3.26665C19.0689 3.40398 19.215 3.54493 19.354 3.6931C19.4822 3.83043 19.607 3.97137 19.7281 4.11593C19.7566 4.15207 19.7887 4.18821 19.8172 4.22434C19.8599 4.27855 19.949 4.32553 19.8207 4.22796C19.8956 4.28578 19.9597 4.41588 20.0131 4.49539C20.2269 4.80619 20.4229 5.13505 20.5903 5.47476C20.6331 5.5615 20.6723 5.64462 20.7151 5.73135C20.7364 5.77472 20.7542 5.81808 20.7721 5.86145C20.8398 6.01685 20.7115 5.70967 20.7756 5.86507C20.8505 6.06022 20.9253 6.25537 20.9858 6.45413C21.107 6.84083 21.2032 7.23836 21.2638 7.64312C21.2709 7.68648 21.2887 7.74431 21.2851 7.79129C21.2994 7.60698 21.278 7.73708 21.2851 7.7949C21.2958 7.89609 21.3065 7.99367 21.3136 8.09486C21.3172 8.29362 21.3243 8.496 21.3279 8.69838C21.3279 9.07784 21.6557 9.43924 22.0405 9.42117C22.4253 9.4031 22.7531 9.10314 22.7531 8.69838C22.746 6.92756 22.2151 5.14951 21.1961 3.70394C20.1663 2.24391 18.7483 1.13805 17.0879 0.516459C15.424 -0.105136 13.5427 -0.162959 11.8396 0.328535C10.197 0.801959 8.68629 1.78856 7.59957 3.12571C6.45584 4.53876 5.77174 6.24453 5.62922 8.06594C5.49026 9.844 5.92851 11.6726 6.84064 13.1977C7.72071 14.6686 9.04615 15.8901 10.5996 16.5984C12.2671 17.361 14.1092 17.5778 15.9085 17.2164C17.5903 16.8767 19.1687 15.9841 20.3552 14.73C21.5452 13.4724 22.3719 11.8425 22.6355 10.115C22.7068 9.64523 22.7531 9.17181 22.7531 8.69838C22.7531 8.31892 22.4253 7.95753 22.0405 7.9756C21.6521 7.99367 21.3279 8.29362 21.3279 8.69838Z" fill="black"/>
<path d="M25.9171 32.9153C25.6107 32.9153 25.3078 32.9153 25.0014 32.9153C24.1926 32.9153 23.3802 32.9153 22.5714 32.9153C21.4134 32.9153 20.2554 32.9153 19.0975 32.9153C17.7471 32.9153 16.4002 32.9153 15.0499 32.9153C13.6674 32.9153 12.2885 32.9153 10.9061 32.9153C9.64832 32.9153 8.39057 32.9153 7.13639 32.9153C6.16012 32.9153 5.18741 32.9153 4.21115 32.9153C3.67669 32.9153 3.14224 32.9153 2.60422 32.9153C2.5579 32.9153 2.51158 32.9153 2.46527 32.9153C2.45814 32.9153 2.44745 32.9153 2.44032 32.9153C2.40826 32.9153 2.37263 32.9153 2.34056 32.9117C2.34769 32.9117 2.24436 32.9081 2.24436 32.9045C2.24079 32.8972 2.42963 32.9406 2.29068 32.9081C2.23011 32.8936 2.16597 32.8792 2.1054 32.8611C2.08402 32.8539 2.05908 32.8394 2.0377 32.8394C1.94863 32.825 2.15528 32.9081 2.07689 32.8575C2.03058 32.8286 1.98069 32.8069 1.93437 32.7816C1.88805 32.7527 1.8453 32.7201 1.79898 32.6912C1.73128 32.6515 1.85599 32.7274 1.85242 32.7346C1.84886 32.7382 1.77404 32.6659 1.76691 32.6587C1.72772 32.6226 1.69209 32.5792 1.65646 32.5395C1.57095 32.4527 1.72416 32.6551 1.64221 32.5178C1.6137 32.4708 1.5852 32.4274 1.55669 32.3768C1.54244 32.3479 1.52819 32.319 1.51394 32.2937C1.46049 32.1889 1.53175 32.3371 1.53175 32.3371C1.49969 32.3407 1.46049 32.0443 1.44268 32.0118C1.49256 32.1058 1.45337 32.1347 1.4498 32.0588C1.4498 32.0263 1.44624 31.9937 1.44268 31.9576C1.44268 31.9395 1.44268 31.9215 1.44268 31.9034C1.44268 31.8636 1.44268 31.8275 1.44268 31.7878C1.44268 30.6168 1.44268 29.4459 1.44268 28.2714C1.44268 28.1088 1.44268 27.9498 1.44268 27.7871C1.44268 27.4221 1.49969 27.0644 1.50681 26.703C1.50681 26.703 1.48543 26.8547 1.49612 26.7716C1.49969 26.7391 1.50681 26.7066 1.51037 26.6741C1.5175 26.6162 1.52819 26.5584 1.53888 26.5042C1.56026 26.3813 1.58163 26.2621 1.61014 26.1428C1.66002 25.9115 1.72059 25.6838 1.78829 25.4598C1.85955 25.2285 1.9415 25.0044 2.03058 24.7804C2.0769 24.6611 1.97 24.9213 2.04126 24.7551C2.06264 24.7045 2.08758 24.6539 2.10896 24.6033C2.15884 24.4949 2.21229 24.3864 2.26574 24.2816C2.47952 23.866 2.72893 23.4757 3.00328 23.0963C3.0781 22.9951 2.91777 23.2011 3.0211 23.0746C3.05673 23.0312 3.08879 22.9879 3.12442 22.9445C3.19925 22.8541 3.27407 22.7638 3.35246 22.6771C3.50923 22.5 3.67313 22.3337 3.84415 22.1711C4.00805 22.0157 4.18264 21.8675 4.35723 21.723C4.45343 21.6435 4.25034 21.8025 4.37861 21.7049C4.42136 21.6724 4.46768 21.6399 4.51044 21.6073C4.6102 21.5351 4.71353 21.4628 4.82042 21.3941C5.20167 21.1411 5.60429 20.9279 6.0176 20.7364C6.13162 20.6822 5.89289 20.787 6.04254 20.7255C6.09242 20.7039 6.14587 20.6822 6.19575 20.6641C6.31333 20.6171 6.43447 20.5737 6.55562 20.534C6.77652 20.4617 6.99743 20.3967 7.22546 20.3425C7.4535 20.2883 7.68509 20.2413 7.91669 20.2051C7.94163 20.2015 7.98795 20.1871 8.01289 20.1907C8.01645 20.1907 7.86325 20.2087 7.94519 20.2015C8.0022 20.1943 8.05921 20.1871 8.11622 20.1834C8.24805 20.169 8.37988 20.1581 8.51171 20.1509C8.78251 20.1365 9.05686 20.1401 9.32765 20.1401C10.3289 20.1401 11.3301 20.1401 12.3313 20.1401C13.6924 20.1401 15.0499 20.1401 16.4109 20.1401C17.3338 20.1401 18.2566 20.1401 19.1794 20.1401C19.2507 20.1401 19.3184 20.1401 19.3896 20.1401C19.7424 20.1401 20.0915 20.1979 20.4407 20.2051C20.4407 20.2051 20.2911 20.1834 20.373 20.1943C20.4051 20.1979 20.4372 20.2051 20.4692 20.2087C20.5262 20.216 20.5832 20.2268 20.6367 20.2377C20.7578 20.2593 20.8754 20.281 20.993 20.3099C21.221 20.3605 21.4455 20.422 21.6664 20.4906C21.8944 20.5629 22.1153 20.646 22.3362 20.7364C22.4538 20.7834 22.1973 20.6749 22.3612 20.7472C22.4111 20.7689 22.461 20.7942 22.5108 20.8159C22.6177 20.8665 22.7246 20.9207 22.8279 20.9749C23.2377 21.1917 23.6225 21.4447 23.9966 21.723C24.0964 21.7989 23.8933 21.6362 24.018 21.741C24.0608 21.7772 24.1035 21.8097 24.1463 21.8459C24.2353 21.9217 24.3244 21.9976 24.4099 22.0771C24.5845 22.2362 24.7484 22.4024 24.9088 22.5759C25.062 22.7421 25.208 22.9192 25.3506 23.0963C25.4289 23.1938 25.2722 22.9879 25.3684 23.118C25.4004 23.1613 25.4325 23.2083 25.4646 23.2517C25.5358 23.3529 25.6071 23.4577 25.6748 23.5661C25.9242 23.9528 26.1344 24.3611 26.3233 24.7804C26.3767 24.896 26.2734 24.6539 26.334 24.8057C26.3553 24.8562 26.3767 24.9105 26.3945 24.9611C26.4408 25.0803 26.4836 25.2032 26.5228 25.3261C26.5941 25.5501 26.6582 25.7742 26.7116 26.0055C26.7651 26.2368 26.8114 26.4717 26.847 26.7066C26.8506 26.7319 26.8648 26.7789 26.8613 26.8042C26.8613 26.8078 26.8435 26.6524 26.8506 26.7355C26.8577 26.7933 26.8648 26.8511 26.8684 26.909C26.8827 27.0427 26.8934 27.1764 26.9005 27.3101C26.9219 27.7365 26.9112 28.163 26.9112 28.5894C26.9112 29.6917 26.9219 30.7939 26.9112 31.8962C26.9112 31.9179 26.9112 31.9395 26.9112 31.9612C26.9112 31.9865 26.8969 32.1817 26.9076 32.0624C26.9183 31.9432 26.8898 32.1275 26.8827 32.1564C26.8791 32.1708 26.8363 32.3407 26.8257 32.3371C26.815 32.3371 26.8969 32.2034 26.8506 32.272C26.8399 32.2901 26.8292 32.3154 26.8185 32.3371C26.79 32.3913 26.758 32.4455 26.7259 32.4997C26.7152 32.5178 26.6974 32.5358 26.6867 32.5575C26.6439 32.637 26.7793 32.4599 26.7116 32.5214C26.6724 32.5575 26.6404 32.6045 26.6012 32.6406C26.5834 32.6587 26.5656 32.6732 26.5513 32.6876C26.5442 32.6912 26.5406 32.6985 26.5335 32.7021C26.4872 32.7418 26.4872 32.7418 26.5335 32.7057C26.5513 32.6623 26.5798 32.6732 26.5335 32.7057C26.5085 32.7238 26.4836 32.7418 26.4551 32.7563C26.4088 32.7852 26.3625 32.8105 26.3126 32.8358C26.1736 32.9117 26.4088 32.8105 26.2876 32.8466C26.2342 32.8611 26.1843 32.8792 26.1273 32.8936C26.1024 32.9008 26.081 32.9045 26.056 32.9081C25.9171 32.9406 26.1059 32.8972 26.1024 32.9045C26.1059 32.9189 25.9385 32.9153 25.9171 32.9153C25.543 32.9189 25.1867 33.2442 25.2045 33.6381C25.2223 34.0248 25.518 34.3681 25.9171 34.3609C27.2033 34.3428 28.2259 33.3417 28.3328 32.0516C28.3649 31.654 28.3399 31.2457 28.3399 30.8481C28.3399 29.7495 28.3649 28.6509 28.3364 27.5522C28.2865 25.4598 27.5204 23.4577 26.1914 21.8639C24.923 20.3388 23.1094 19.2511 21.1783 18.868C20.2341 18.6801 19.297 18.6873 18.3421 18.6873C17.12 18.6873 15.8943 18.6873 14.6722 18.6873C13.3467 18.6873 12.0213 18.6873 10.6923 18.6873C10.0117 18.6873 9.33121 18.6692 8.65067 18.6945C6.59481 18.7704 4.62802 19.5655 3.07098 20.9279C1.58164 22.2325 0.52698 24.0829 0.170678 26.0488C-0.0609188 27.3173 0.0103417 28.622 0.0103417 29.9049C0.0103417 30.4976 0.0103417 31.0867 0.0103417 31.6793C0.0103417 31.8384 0.0103417 31.9937 0.0281568 32.1528C0.10298 32.7635 0.366644 33.3526 0.840526 33.7537C1.31797 34.1585 1.88449 34.3645 2.50802 34.3645C2.67548 34.3645 2.83938 34.3645 3.00684 34.3645C3.74083 34.3645 4.47481 34.3645 5.20879 34.3645C6.33827 34.3645 7.46775 34.3645 8.59723 34.3645C9.94761 34.3645 11.298 34.3645 12.6484 34.3645C14.0629 34.3645 15.481 34.3645 16.8955 34.3645C18.1996 34.3645 19.5001 34.3645 20.8041 34.3645C21.8374 34.3645 22.8743 34.3645 23.9075 34.3645C24.499 34.3645 25.0905 34.3645 25.6819 34.3645C25.7603 34.3645 25.8387 34.3645 25.9135 34.3645C26.2876 34.3645 26.6439 34.032 26.6261 33.6417C26.6119 33.2442 26.3161 32.9153 25.9171 32.9153Z" fill="black"/>
</svg>
