<svg width="48" height="48" viewBox="0 0 48 48" fill="none" xmlns="http://www.w3.org/2000/svg">
<path d="M41.082 33.57H36.042V28.53C36.042 27.846 35.49 27.294 34.806 27.294C34.122 27.294 33.57 27.846 33.57 28.53V33.57H28.53C27.846 33.57 27.294 34.122 27.294 34.806C27.294 35.49 27.846 36.042 28.53 36.042H33.57V41.082C33.57 41.766 34.122 42.318 34.806 42.318C35.49 42.318 36.042 41.766 36.042 41.082V36.042H41.082C41.766 36.042 42.318 35.49 42.318 34.806C42.318 34.122 41.766 33.57 41.082 33.57Z" fill="white"/>
<path d="M34.806 21.612C34.68 21.612 34.56 21.648 34.434 21.648C32.892 19.296 30.228 17.25 26.484 15.54C27.504 13.962 28.11 12.102 28.11 10.092C28.11 4.524 23.58 0 18.018 0C12.456 0 7.926 4.524 7.926 10.092C7.926 12.114 8.538 13.986 9.564 15.57C3.324 18.438 0 22.26 0 26.7V33.018C0 33.072 0.0240001 33.114 0.0300001 33.162C0.0420001 33.246 0.0540001 33.318 0.0780001 33.396C0.102 33.468 0.132 33.534 0.168 33.6C0.21 33.678 0.252 33.744 0.312 33.81C0.36 33.864 0.408 33.906 0.462 33.954C0.504 33.99 0.534 34.038 0.582 34.068C2.778 35.442 5.298 36.588 8.07 37.47C11.286 38.466 14.646 38.976 18.012 38.976C19.434 38.976 20.85 38.862 22.26 38.676C23.928 44.058 28.89 48 34.806 48C42.078 48 48 42.078 48 34.806C48 27.528 42.078 21.612 34.806 21.612ZM18.018 2.472C22.218 2.472 25.638 5.886 25.638 10.086C25.638 14.286 22.224 17.706 18.018 17.706C13.812 17.706 10.398 14.286 10.398 10.086C10.398 5.886 13.818 2.472 18.018 2.472ZM21.756 36.228C17.43 36.762 12.978 36.408 8.814 35.112C6.474 34.368 4.362 33.402 2.472 32.286V26.7C2.472 22.278 7.08 19.308 11.238 17.514C13.032 19.152 15.402 20.184 18.018 20.184C20.64 20.184 23.016 19.152 24.81 17.508C27.156 18.516 29.856 20.022 31.626 22.05C25.89 23.484 21.612 28.638 21.612 34.812C21.612 35.292 21.702 35.754 21.756 36.228ZM34.806 45.528C28.896 45.528 24.084 40.722 24.084 34.806C24.084 28.896 28.896 24.084 34.806 24.084C40.716 24.084 45.528 28.89 45.528 34.806C45.528 40.716 40.716 45.528 34.806 45.528Z" fill="white"/>
</svg>
