<svg width="34" height="34" viewBox="0 0 34 34" fill="none" xmlns="http://www.w3.org/2000/svg">
<path d="M0.798535 33.8055C0.588754 33.8055 0.385043 33.7221 0.233876 33.5697C0.0474931 33.3818 -0.0349178 33.1133 0.0137142 32.8521L1.68501 23.8743C1.71472 23.715 1.79146 23.5682 1.90517 23.4535L23.8455 1.3377C25.6151 -0.445818 28.4942 -0.445979 30.2638 1.3377L32.2101 3.29959C33.9796 5.08334 33.9796 7.98557 32.2101 9.76924L10.2698 31.8851C10.156 31.9998 10.0105 32.0771 9.8524 32.107L0.945788 33.7917C0.896757 33.8009 0.847486 33.8055 0.798535 33.8055ZM3.20913 24.4159L1.79873 31.9925L9.31513 30.5708L31.0807 8.63089C32.2275 7.47491 32.2275 5.59392 31.0807 4.43794L29.1344 2.47605C28.5789 1.91613 27.8403 1.60775 27.0546 1.60775C26.2689 1.60775 25.5303 1.91613 24.9748 2.47613L3.20913 24.4159Z" fill="white"/>
<path d="M29.5703 12.0967C29.3659 12.0967 29.1616 12.0181 29.0057 11.8609L21.7704 4.5678C21.4586 4.25347 21.4586 3.74377 21.7704 3.42944C22.0824 3.11519 22.5879 3.11511 22.8998 3.42944L30.1351 10.7226C30.4469 11.0369 30.4469 11.5466 30.1351 11.8609C29.979 12.0181 29.7746 12.0967 29.5703 12.0967Z" fill="white"/>
</svg>
