<svg width="62" height="51" viewBox="0 0 62 51" fill="none" xmlns="http://www.w3.org/2000/svg">
<path d="M57.8008 15.627H38.8743V3.81196C38.8743 1.70973 37.17 0 35.0744 0H3.79326C1.70432 0 0 1.70973 0 3.81196V24.4085C0 26.5107 1.70432 28.2205 3.78 28.2205L8.46853 28.2737L8.26295 33.4095C8.24968 33.8087 8.48179 34.1812 8.84653 34.3342C8.96589 34.3875 9.09853 34.4141 9.22453 34.4141C9.48316 34.4141 9.73516 34.3143 9.92084 34.1147L15.5046 28.2803L22.7331 28.2537V40.0222C22.7331 42.1245 24.4374 43.8342 26.5197 43.8342L31.2082 43.8874L31.0026 49.0365C30.9894 49.4357 31.2215 49.8083 31.5862 49.9613C31.7056 50.0145 31.8382 50.0411 31.9642 50.0411C32.2228 50.0411 32.4748 49.9413 32.6605 49.7417L38.2443 43.9074L57.8075 43.8408C59.903 43.8342 61.6074 42.1245 61.6074 40.0289V19.439C61.6074 17.3368 59.8964 15.627 57.8008 15.627ZM15.0868 26.3577C14.8282 26.3577 14.5762 26.4642 14.3972 26.6571L10.2856 30.948L10.4315 27.3623C10.4447 27.1028 10.3453 26.85 10.1662 26.6571C9.98716 26.4708 9.74179 26.3577 9.47653 26.3577L3.78663 26.2912C2.75874 26.2912 1.91653 25.4463 1.91653 24.4085V3.81196C1.91653 2.77415 2.75211 1.92926 3.78663 1.92926H35.0678C36.1023 1.92926 36.9445 2.77415 36.9445 3.81196V16.585V24.4085C36.9445 25.4397 36.1023 26.2845 35.0678 26.2912L23.688 26.3311C23.688 26.3311 23.688 26.3311 23.6814 26.3311L15.0868 26.3577ZM59.6776 40.0355C59.6776 41.0667 58.8354 41.9116 57.8008 41.9182L37.8265 41.9848C37.5679 41.9848 37.3159 42.0912 37.1368 42.2841L33.0253 46.5751L33.1712 42.9893C33.1844 42.7299 33.0849 42.4771 32.9059 42.2841C32.7268 42.0912 32.4815 41.9848 32.2162 41.9848L26.5263 41.9182C25.4918 41.9182 24.6496 41.0733 24.6496 40.0355V28.2604L35.0678 28.2271C37.1634 28.2205 38.8677 26.5107 38.8677 24.4152V17.5563H57.8008C58.8354 17.5563 59.6776 18.4012 59.6776 19.439V40.0355ZM25.4653 22.3994L25.7571 22.5059L26.5794 20.5766L26.2544 20.4568C25.6244 20.224 24.948 19.8648 24.2252 19.3924C24.8485 18.7205 25.3194 17.9555 25.6311 17.1172C26.0024 16.1393 26.1947 15.0349 26.1947 13.8308C26.1947 12.3739 25.9029 11.0434 25.326 9.87916C24.7557 8.70829 23.9002 7.77693 22.7861 7.10501C21.6853 6.45305 20.4319 6.12042 19.0658 6.12042C17.7129 6.12042 16.4728 6.43975 15.3786 7.07175C14.2712 7.70375 13.4091 8.64177 12.8122 9.84589C12.222 11.0434 11.9236 12.3872 11.9236 13.8375C11.9236 15.2944 12.222 16.6249 12.8056 17.8024C13.4091 18.9933 14.2712 19.9246 15.3587 20.5633C16.4529 21.2152 17.6864 21.5479 19.026 21.5479C20.2727 21.5479 21.4333 21.2751 22.4811 20.7296C23.4758 21.4813 24.4772 22.0402 25.4653 22.3994ZM18.7011 18.6407L19.0459 18.7272C19.4305 18.8269 19.8085 18.9667 20.1733 19.1396C19.8218 19.2261 19.4637 19.266 19.0923 19.266C17.7527 19.266 16.6851 18.8136 15.8296 17.8889C14.9741 16.9576 14.5431 15.6004 14.5431 13.8441C14.5431 12.028 14.9807 10.6575 15.8362 9.75941C16.6917 8.86796 17.7793 8.41558 19.0857 8.41558C19.9611 8.41558 20.7303 8.63512 21.4399 9.08084C22.1428 9.52657 22.6601 10.132 23.0248 10.9502C23.3962 11.7552 23.5819 12.7198 23.5819 13.8308C23.5819 15.6204 23.1309 17.0041 22.2357 17.9421C21.5394 17.4033 20.6773 16.9908 19.6626 16.7048L19.3576 16.6183L18.7011 18.6407ZM44.5775 24.1757L39.8889 36.4365H42.2299L43.4833 32.9239H47.8866L49.2196 36.4365H51.6932L46.7195 24.1757H44.5775ZM47.1572 31.0146H44.1796L45.2738 28.0608C45.413 27.6816 45.539 27.3024 45.6452 26.9165C45.7778 27.3091 45.9369 27.7548 46.116 28.2471L47.1572 31.0146Z" fill="#7936EF"/>
</svg>
