<svg width="40" height="54" viewBox="0 0 40 54" fill="none" xmlns="http://www.w3.org/2000/svg">
<path d="M1.17647 0C0.560471 5.86956e-05 5.88235e-05 0.55927 0 1.17391V52.8261C0 53.4053 0.528411 53.9982 1.17647 54H38.8235C39.4395 53.9999 39.9999 53.4407 40 52.8261V9.3913C40 9.08491 39.8691 8.78133 39.6508 8.56586L31.4155 0.348505C31.1995 0.130615 30.8953 0.00234783 30.5882 0H1.17647ZM2.35294 2.34783H29.4118V9.3913C29.4194 9.93618 29.8734 10.564 30.5882 10.5652H37.6471V51.6522H2.35294V2.34783ZM31.7647 4.01695L35.9743 8.21739H31.7647V4.01695ZM8.23529 12.3261C7.58553 12.3261 7.05882 12.8516 7.05882 13.5C7.05882 14.1484 7.58553 14.6739 8.23529 14.6739H31.7647C32.4145 14.6739 32.9412 14.1484 32.9412 13.5C32.9412 12.8516 32.4145 12.3261 31.7647 12.3261H8.23529ZM8.23529 22.8913C7.58553 22.8913 7.05882 23.4169 7.05882 24.0652C7.05882 24.7136 7.58553 25.2391 8.23529 25.2391H31.7647C32.4145 25.2391 32.9412 24.7136 32.9412 24.0652C32.9412 23.4169 32.4145 22.8913 31.7647 22.8913H8.23529ZM8.23529 33.4565C7.58553 33.4565 7.05882 33.9821 7.05882 34.6304C7.05882 35.2788 7.58553 35.8043 8.23529 35.8043H31.7647C32.4145 35.8043 32.9412 35.2788 32.9412 34.6304C32.9412 33.9821 32.4145 33.4565 31.7647 33.4565H8.23529ZM34.0441 38.1338C33.7444 38.1549 33.4549 38.2962 33.2537 38.519L26.3235 45.966L22.4632 43.0679C21.9682 42.6943 21.1753 42.8089 20.8068 43.3073C20.4383 43.8056 20.5624 44.5954 21.0662 44.9572L25.7721 48.4789C26.2327 48.8185 26.9455 48.7516 27.3346 48.3322L34.9817 40.1148C35.3071 39.7741 35.3954 39.229 35.1939 38.8034C34.9925 38.3778 34.5145 38.0995 34.0441 38.1338ZM8.23529 44.0217C7.58553 44.0217 7.05882 44.5473 7.05882 45.1957C7.05882 45.844 7.58553 46.3696 8.23529 46.3696H17.0588C17.7086 46.3696 18.2353 45.844 18.2353 45.1957C18.2353 44.5473 17.7086 44.0217 17.0588 44.0217H8.23529Z" fill="black"/>
</svg>
