<svg width="176" height="176" viewBox="0 0 176 176" fill="none" xmlns="http://www.w3.org/2000/svg">
<path d="M88 44.1857C102.852 44.1857 115.106 56.4388 115.106 71.2911C115.106 86.1435 102.852 98.3966 88 98.3966C73.1477 98.3966 60.8945 86.1435 60.8945 71.2911C60.8945 56.4388 73.1477 44.1857 88 44.1857ZM88 53.097C77.9747 53.097 69.8059 61.2658 69.8059 71.2911C69.8059 81.3165 77.9747 89.4852 88 89.4852C98.0253 89.4852 106.194 81.3165 106.194 71.2911C106.194 61.2658 98.0253 53.097 88 53.097Z" fill="#7936EF"/>
<path d="M88 0C136.641 0 176 39.3587 176 88C176 136.641 136.641 176 88 176C39.3587 176 0 136.641 0 88C0 39.3587 39.3587 0 88 0ZM88 101.367C114.734 101.367 137.013 121.046 141.097 146.295C157.063 131.814 167.089 111.021 167.089 88C167.089 44.1857 131.443 8.91139 88 8.91139C44.1857 8.91139 8.91139 44.1857 8.91139 88C8.91139 111.021 18.9367 131.814 34.5316 146.295C38.9873 121.046 61.2658 101.367 88 101.367ZM132.928 152.979C131.814 129.215 112.135 110.278 88 110.278C63.865 110.278 44.1857 129.215 42.7004 152.979C55.6962 161.89 71.2911 167.089 88 167.089C104.709 167.089 120.304 161.89 132.928 152.979Z" fill="#7936EF"/>
</svg>
