<svg width="43" height="50" viewBox="0 0 43 50" fill="none" xmlns="http://www.w3.org/2000/svg">
<path d="M21.4211 1.4821e-05C21.3076 -0.000647686 21.1951 0.0209067 21.09 0.0634378C20.9788 0.109819 20.8787 0.178812 20.7962 0.265941L20.7994 0.256282C16.96 4.13403 11.1139 6.43057 4.92097 6.43549C3.60427 6.4324 2.29103 6.32507 0.999655 6.11645C0.876509 6.09656 0.750466 6.10339 0.630253 6.13647C0.510041 6.16955 0.398532 6.2281 0.303449 6.30804C0.208367 6.38799 0.131982 6.48743 0.0795863 6.59948C0.0271903 6.71153 3.46422e-05 6.83351 0 6.95697V28.2595C0 34.3942 5.41139 39.5844 10.6349 43.313C15.8585 47.0415 21.0667 49.3315 21.0667 49.3315C21.1769 49.38 21.2961 49.405 21.4167 49.405C21.5372 49.405 21.6565 49.38 21.7666 49.3315C21.7666 49.3315 26.974 47.0415 32.197 43.313C37.4199 39.5844 42.8311 34.3941 42.8311 28.2595V6.96621C42.8311 6.84291 42.804 6.72108 42.7517 6.60915C42.6995 6.49722 42.6233 6.39785 42.5284 6.3179C42.4335 6.23796 42.3223 6.17934 42.2023 6.1461C42.0823 6.11287 41.9564 6.1058 41.8334 6.1254C40.5414 6.33112 39.2274 6.43511 37.9103 6.43543C31.7166 6.43234 25.8692 4.13419 22.0292 0.255864C21.9497 0.175684 21.855 0.11185 21.7505 0.068035C21.6459 0.0242201 21.5346 0.000742004 21.4211 1.4821e-05ZM21.4146 2.00255C25.6098 5.89936 31.5923 8.13521 37.9094 8.13837C37.9092 8.13837 37.9096 8.13837 37.9094 8.13837C38.9817 8.13821 40.0494 8.05305 41.1095 7.92524V28.2591C41.1095 33.3665 36.2438 38.3233 31.1901 41.931C26.6441 45.1763 22.2872 47.2154 21.4171 47.6117C20.5475 47.2157 16.1897 45.1764 11.6427 41.9308C6.58837 38.323 1.72171 33.3664 1.72171 28.2591V7.91858C2.78016 8.04864 3.84586 8.13621 4.91713 8.13879C4.91626 8.13879 4.918 8.13879 4.91713 8.13879C11.2341 8.13557 17.2193 5.89936 21.4146 2.00255ZM21.4156 11.8658C18.0255 11.8658 15.2686 14.5908 15.2686 17.9432V21.6478H13.8299C13.6016 21.6478 13.3826 21.7375 13.2212 21.8973C13.0597 22.057 12.969 22.2737 12.969 22.4996V34.3225C12.969 34.5484 13.0597 34.7651 13.2212 34.9248C13.3826 35.0845 13.6016 35.1743 13.8299 35.1743H29.0013C29.2297 35.1743 29.4486 35.0845 29.6101 34.9248C29.7715 34.765 29.8622 34.5484 29.8622 34.3225V22.4996C29.8622 22.2737 29.7715 22.057 29.6101 21.8973C29.4486 21.7375 29.2297 21.6478 29.0013 21.6478H27.5627V17.9432C27.5627 14.5908 24.8058 11.8658 21.4156 11.8658ZM21.4156 13.5695C23.8827 13.5695 25.8412 15.5061 25.8412 17.9432V21.6478H16.9904V17.9432C16.9904 15.5061 18.9486 13.5695 21.4156 13.5695ZM14.6908 23.3514H28.1404V33.4706H14.6908V23.3514Z" fill="#7936EF"/>
</svg>
