<svg width="70" height="40" viewBox="0 0 70 40" fill="none" xmlns="http://www.w3.org/2000/svg">
<path d="M35 39.3896C16.4153 39.3896 1.70128 21.3201 1.08444 20.5516C0.682791 20.0504 0.682791 19.3393 1.08444 18.8381C1.70128 18.0695 16.4153 0 35 0C53.5848 0 68.2988 18.0695 68.9156 18.8381C69.3173 19.3393 69.3173 20.0504 68.9156 20.5516C68.2988 21.3201 53.5848 39.3896 35 39.3896ZM3.95279 19.6935C7.09848 23.2502 19.9546 36.6523 35 36.6523C50.0669 36.6523 62.9049 23.2529 66.0473 19.6962C62.9016 16.1395 50.0455 2.73736 35 2.73736C19.9332 2.73736 7.09514 16.1368 3.95279 19.6935Z" fill="#FC60FF"/>
<path d="M35 33.2546C27.5231 33.2546 21.4402 27.1718 21.4402 19.6948C21.4402 12.2179 27.5231 6.13499 35 6.13499C42.4763 6.13499 48.5592 12.2179 48.5592 19.6948C48.5592 27.1718 42.4763 33.2546 35 33.2546ZM35 8.87235C29.0328 8.87235 24.1775 13.7269 24.1775 19.6948C24.1775 25.6627 29.0328 30.5173 35 30.5173C40.9673 30.5173 45.8218 25.6627 45.8218 19.6948C45.8218 13.7269 40.9673 8.87235 35 8.87235Z" fill="#FC60FF"/>
<path d="M35 26.6679C31.1553 26.6679 28.027 23.5402 28.027 19.6948C28.027 15.8494 31.1553 12.7218 35 12.7218C38.8448 12.7218 41.9724 15.8494 41.9724 19.6948C41.9724 23.5402 38.8448 26.6679 35 26.6679ZM35 15.4591C32.6643 15.4591 30.7643 17.3598 30.7643 19.6948C30.7643 22.0299 32.6643 23.9305 35 23.9305C37.3351 23.9305 39.2351 22.0299 39.2351 19.6948C39.2351 17.3598 37.3351 15.4591 35 15.4591Z" fill="#FC60FF"/>
</svg>
