<svg width="38" height="44" viewBox="0 0 38 44" fill="none" xmlns="http://www.w3.org/2000/svg">
<path d="M36.0345 10.4827H1.96552C0.884483 10.4827 0 9.59825 0 8.51721C0 7.43618 0.884483 6.5517 1.96552 6.5517H36.0345C37.1155 6.5517 38 7.43618 38 8.51721C38 9.59825 37.1155 10.4827 36.0345 10.4827ZM1.96552 7.86204C1.60517 7.86204 1.31034 8.15687 1.31034 8.51721C1.31034 8.87756 1.60517 9.17239 1.96552 9.17239H36.0345C36.3948 9.17239 36.6897 8.87756 36.6897 8.51721C36.6897 8.15687 36.3948 7.86204 36.0345 7.86204H1.96552Z" fill="white"/>
<path d="M26.8882 43.2414H11.1117C7.15442 43.2414 3.93097 40.0179 3.93097 36.0607V12.4483C3.93097 12.0879 4.2258 11.7931 4.58614 11.7931C4.94649 11.7931 5.24131 12.0879 5.24131 12.4483V36.0607C5.24131 39.2972 7.87511 41.931 11.1117 41.931H26.8882C30.1248 41.931 32.7586 39.2972 32.7586 36.0607V12.4483C32.7586 12.0879 33.0534 11.7931 33.4137 11.7931C33.7741 11.7931 34.0689 12.0879 34.0689 12.4483V36.0607C34.0689 40.0179 30.8455 43.2414 26.8882 43.2414Z" fill="white"/>
<path d="M28.8276 7.86207C28.5852 7.86207 28.3559 7.73103 28.2379 7.50172L25.1455 1.31034H12.8545L9.76206 7.50172C9.59827 7.82276 9.20516 7.95379 8.88413 7.79655C8.56309 7.63276 8.43206 7.23966 8.5893 6.91862L11.8652 0.366897C11.97 0.137586 12.1993 0 12.4483 0H25.5517C25.8007 0 26.03 0.137586 26.1348 0.360345L29.4107 6.91207C29.5745 7.2331 29.4434 7.62621 29.1159 7.79C29.0241 7.84241 28.9259 7.86207 28.8276 7.86207Z" fill="white"/>
<path d="M19 38.6552C17.5521 38.6552 16.3793 37.4825 16.3793 36.0345V17.6897C16.3793 16.2418 17.5521 15.069 19 15.069C20.448 15.069 21.6207 16.2418 21.6207 17.6897V36.0345C21.6207 37.4825 20.448 38.6552 19 38.6552ZM19 16.3794C18.2793 16.3794 17.6897 16.969 17.6897 17.6897V36.0345C17.6897 36.7552 18.2793 37.3449 19 37.3449C19.7207 37.3449 20.3104 36.7552 20.3104 36.0345V17.6897C20.3104 16.969 19.7207 16.3794 19 16.3794Z" fill="white"/>
<path d="M11.1379 38.6552C9.68997 38.6552 8.51721 37.4825 8.51721 36.0345V17.6897C8.51721 16.2418 9.68997 15.069 11.1379 15.069C12.5858 15.069 13.7586 16.2418 13.7586 17.6897V36.0345C13.7586 37.4825 12.5858 38.6552 11.1379 38.6552ZM11.1379 16.3794C10.4172 16.3794 9.82756 16.969 9.82756 17.6897V36.0345C9.82756 36.7552 10.4172 37.3449 11.1379 37.3449C11.8586 37.3449 12.4482 36.7552 12.4482 36.0345V17.6897C12.4482 16.969 11.8586 16.3794 11.1379 16.3794Z" fill="white"/>
<path d="M26.8621 38.6552C25.4142 38.6552 24.2414 37.4825 24.2414 36.0345V17.6897C24.2414 16.2418 25.4142 15.069 26.8621 15.069C28.31 15.069 29.4828 16.2418 29.4828 17.6897V36.0345C29.4828 37.4825 28.31 38.6552 26.8621 38.6552ZM26.8621 16.3794C26.1414 16.3794 25.5517 16.969 25.5517 17.6897V36.0345C25.5517 36.7552 26.1414 37.3449 26.8621 37.3449C27.5828 37.3449 28.1724 36.7552 28.1724 36.0345V17.6897C28.1724 16.969 27.5828 16.3794 26.8621 16.3794Z" fill="white"/>
</svg>
