<svg width="37" height="49" viewBox="0 0 37 49" fill="none" xmlns="http://www.w3.org/2000/svg">
<path fill-rule="evenodd" clip-rule="evenodd" d="M30.4167 49C33.7764 49 36.5 46.1134 36.5 42.5526V6.44737C36.5 2.88659 33.7764 0 30.4167 0H6.08333C2.72361 0 0 2.88659 0 6.44737V42.5526C0 46.1134 2.72361 49 6.08333 49H30.4167ZM34.0667 42.5526C34.0667 44.689 32.4324 46.4211 30.4167 46.4211H6.08333C4.06749 46.4211 2.43333 44.689 2.43333 42.5526V6.44737C2.43333 4.31089 4.06749 2.57895 6.08333 2.57895H30.4167C32.4324 2.57895 34.0667 4.31089 34.0667 6.44737V42.5526Z" fill="#7936EF"/>
<path fill-rule="evenodd" clip-rule="evenodd" d="M7.2998 9.02632C7.2998 8.31417 7.84453 7.73685 8.51647 7.73685H27.9831C28.655 7.73685 29.1998 8.31417 29.1998 9.02632C29.1998 9.73847 28.655 10.3158 27.9831 10.3158H8.51647C7.84453 10.3158 7.2998 9.73847 7.2998 9.02632Z" fill="#7936EF"/>
<path fill-rule="evenodd" clip-rule="evenodd" d="M7.2998 21.9211C7.2998 21.209 7.84453 20.6316 8.51647 20.6316H27.9831C28.655 20.6316 29.1998 21.209 29.1998 21.9211C29.1998 22.6331 28.655 23.2105 27.9831 23.2105H8.51647C7.84453 23.2105 7.2998 22.6331 7.2998 21.9211Z" fill="#7936EF"/>
<path fill-rule="evenodd" clip-rule="evenodd" d="M7.2998 34.8158C7.2998 34.1037 7.84453 33.5263 8.51647 33.5263H19.4665C20.1383 33.5263 20.6831 34.1037 20.6831 34.8158C20.6831 35.5278 20.1383 36.1053 19.4665 36.1053H8.51647C7.84453 36.1053 7.2998 35.5278 7.2998 34.8158Z" fill="#7936EF"/>
</svg>
