<svg width="48" height="52" viewBox="0 0 48 52" fill="none" xmlns="http://www.w3.org/2000/svg">
<path d="M18.7504 42.271L6.96444 35.4789C6.55386 35.2414 6.03013 35.3829 5.79356 35.7935C5.55698 36.204 5.69756 36.7278 6.10813 36.9643L17.8941 43.7565C18.0295 43.8345 18.1761 43.8713 18.3218 43.8713C18.6184 43.8713 18.9064 43.717 19.0649 43.4427C19.3007 43.0322 19.1601 42.5076 18.7504 42.271Z" fill="white"/>
<path d="M47.9503 13.9222C47.9323 13.8682 47.9134 13.815 47.8851 13.7662C47.8826 13.761 47.8774 13.7567 47.874 13.7516C47.8389 13.6933 47.7986 13.6385 47.7506 13.5905C47.7471 13.587 47.742 13.5845 47.7386 13.581C47.6889 13.5322 47.6331 13.4885 47.5723 13.4533L37.3892 7.58178L33.6572 5.43374L24.429 0.115073C24.1633 -0.0383578 23.8384 -0.0383578 23.5727 0.115073L0.429436 13.4525C0.163717 13.605 0 13.8887 0 14.1948V37.2352C0 37.5412 0.163717 37.8249 0.428579 37.9775L23.571 51.314C23.619 51.3414 23.6696 51.3577 23.7201 51.3757C23.7399 51.3826 23.7587 51.3946 23.7784 51.3997C23.8521 51.4203 23.9267 51.4297 24.0004 51.4297C24.1479 51.4297 24.2953 51.392 24.4282 51.3157L29.0765 48.6422C30.7686 50.4165 33.0923 51.4297 35.5721 51.4297C40.535 51.4297 44.5722 47.3925 44.5722 42.4295C44.5722 41.5707 44.4479 40.7281 44.2096 39.9164L47.5714 37.9775C47.8371 37.824 48 37.5412 48 37.2352V14.1948C48 14.1185 47.9897 14.043 47.97 13.971C47.9666 13.9539 47.9563 13.9385 47.9503 13.9222ZM24.0004 26.543L15.5668 21.6855L36.9589 9.31495L45.2905 14.1168L45.4277 14.1956L39.9521 17.3508L24.0004 26.543ZM10.2516 19.7123L32.6997 6.86005L35.2438 8.32579L13.4377 20.9354L13.2662 21.0297C12.9928 21.1806 12.8231 21.4686 12.8231 21.7806V26.0698L10.2516 24.5269V19.7123ZM30.9803 5.86918L9.48188 18.178L2.57319 14.1948L24.0004 1.84653L30.9803 5.86918ZM1.71432 15.6785L8.5373 19.612V25.0121C8.5373 25.313 8.69501 25.5924 8.95302 25.7467L13.2388 28.3181C13.3742 28.3996 13.5268 28.4407 13.6802 28.4407C13.826 28.4407 13.9717 28.4039 14.1028 28.3293C14.3711 28.1776 14.5374 27.8921 14.5374 27.5836V23.0698L23.1433 28.0276V49.0897L1.71432 36.7397V15.6785ZM35.5721 49.7154C33.364 49.7154 31.3017 48.7314 29.9105 47.0136C28.8631 45.7305 28.2862 44.1019 28.2862 42.4295C28.2862 38.412 31.5546 35.1437 35.5721 35.1437C35.9475 35.1437 36.3178 35.1728 36.6821 35.2303C39.2304 35.6289 41.4402 37.3775 42.3762 39.8332C42.6959 40.6604 42.8579 41.5338 42.8579 42.4295C42.8579 46.447 39.5896 49.7154 35.5721 49.7154ZM46.2865 36.7397L43.5685 38.3075C43.5531 38.2783 43.5334 38.2535 43.5179 38.2243C43.3473 37.9029 43.1605 37.5926 42.9539 37.2977C42.9248 37.2557 42.8939 37.2163 42.8639 37.1752C42.6462 36.8734 42.4139 36.5846 42.1619 36.3137C42.1456 36.2966 42.1276 36.2803 42.1113 36.2631C41.8559 35.9931 41.5842 35.7403 41.2979 35.5037C41.2782 35.4866 41.2593 35.4686 41.2387 35.4523C40.9533 35.2208 40.6524 35.0108 40.3421 34.8163C40.2984 34.7888 40.2547 34.7597 40.2101 34.7323C39.9067 34.5488 39.5904 34.3851 39.2664 34.2377C39.2107 34.2128 39.1558 34.1871 39.0993 34.1631C38.7744 34.0234 38.4401 33.9017 38.099 33.8005C38.0433 33.7834 37.9875 33.7697 37.931 33.7542C37.5804 33.6574 37.2247 33.5785 36.8612 33.5254C36.8201 33.5194 36.7781 33.516 36.7361 33.5108C36.3529 33.4611 35.9646 33.4294 35.5721 33.4294C30.6091 33.4294 26.5719 37.4666 26.5719 42.4295C26.5719 42.8196 26.6053 43.2053 26.655 43.5893C26.6645 43.6596 26.6713 43.729 26.6825 43.7984C26.7391 44.1653 26.8179 44.527 26.9182 44.8827C26.9371 44.9513 26.9602 45.0182 26.9808 45.0867C27.0939 45.4527 27.2225 45.8127 27.3802 46.1608C27.3836 46.1676 27.3879 46.1753 27.3913 46.1822C27.5491 46.5259 27.7342 46.8568 27.9339 47.1782C27.9554 47.2142 27.9708 47.2528 27.9931 47.2879L24.8576 49.0905V28.0276L37.9455 20.4854L46.2865 15.6785V36.7397Z" fill="white"/>
<path d="M40.4116 41.8278H36.4292V37.5746C36.4292 37.1014 36.0452 36.7174 35.572 36.7174C35.0989 36.7174 34.7149 37.1014 34.7149 37.5746V41.8278H30.7325C30.2594 41.8278 29.8754 42.2118 29.8754 42.685C29.8754 43.1581 30.2594 43.5421 30.7325 43.5421H34.7149V47.2836C34.7149 47.7568 35.0989 48.1408 35.572 48.1408C36.0452 48.1408 36.4292 47.7568 36.4292 47.2836V43.5421H40.4116C40.8847 43.5421 41.2687 43.1581 41.2687 42.685C41.2687 42.2118 40.8847 41.8278 40.4116 41.8278Z" fill="white"/>
</svg>
