<svg width="65" height="65" viewBox="0 0 65 65" fill="none" xmlns="http://www.w3.org/2000/svg">
<path d="M34.4659 19.5339H45.1569V16.169H19.9167V19.5339H26.5581C30.1954 19.5339 33.2437 22.0888 34.002 25.4979H19.9388V28.8627H33.9947C33.2216 32.257 30.1807 34.7972 26.5508 34.7972H19.9315V37.7719L36.4392 54.2796L38.8174 51.9013L25.0708 38.1547H26.5508C32.0361 38.1547 36.5938 34.1199 37.4111 28.8554H45.1716V25.4905H37.4111C37.0577 23.1933 35.9974 21.1243 34.4512 19.5265L34.4659 19.5339Z" fill="#FFB800"/>
<path d="M62.4451 19.8505C60.8105 15.9776 58.4617 12.5023 55.4797 9.52028C52.4977 6.53829 49.0224 4.18951 45.1495 2.55494C41.1441 0.861463 36.8883 0 32.5 0C28.1117 0 23.8559 0.861463 19.8505 2.55494C15.9776 4.18951 12.5023 6.53829 9.52028 9.52028C6.53829 12.5023 4.18951 15.9776 2.55494 19.8505C0.861463 23.8559 0 28.1117 0 32.5C0 36.8883 0.861463 41.1441 2.55494 45.1495C4.18951 49.0224 6.53829 52.4977 9.52028 55.4797C12.5023 58.4617 15.9776 60.8105 19.8505 62.4451C23.8559 64.1385 28.1117 65 32.5 65C36.8883 65 41.1441 64.1385 45.1495 62.4451C49.0224 60.8105 52.4977 58.4617 55.4797 55.4797C58.4617 52.4977 60.8105 49.0224 62.4451 45.1495C64.1385 41.1441 65 36.8883 65 32.5C65 28.1117 64.1385 23.8559 62.4451 19.8505ZM59.3453 43.8463C57.88 47.3142 55.7742 50.4287 53.1015 53.1089C50.4214 55.789 47.3069 57.8874 43.8389 59.3526C40.2458 60.8694 36.4318 61.6425 32.5 61.6425C28.5682 61.6425 24.7468 60.8694 21.1611 59.3526C17.6931 57.8874 14.5786 55.7816 11.8985 53.1089C9.2184 50.4287 7.11996 47.3142 5.65473 43.8463C4.13797 40.2532 3.36486 36.4392 3.36486 32.5074C3.36486 28.5756 4.13797 24.7542 5.65473 21.1684C7.11996 17.7005 9.22576 14.586 11.8985 11.9059C14.5786 9.22576 17.6931 7.12732 21.1611 5.6621C24.7542 4.14533 28.5682 3.37222 32.5 3.37222C36.4318 3.37222 40.2532 4.14533 43.8389 5.6621C47.3069 7.12732 50.4214 9.23312 53.1015 11.9059C55.7816 14.586 57.88 17.7005 59.3453 21.1684C60.862 24.7616 61.6351 28.5756 61.6351 32.5074C61.6351 36.4392 60.862 40.2605 59.3453 43.8463Z" fill="#FFB800"/>
</svg>
