<svg width="50" height="48" viewBox="0 0 50 48" fill="none" xmlns="http://www.w3.org/2000/svg">
<path d="M25.797 0.67015L32.8895 14.6952L48.4611 17.0949C49.101 17.2016 49.5809 17.8415 49.4743 18.4814C49.4209 18.7481 49.3143 18.9614 49.1543 19.1213L37.9556 30.2667L40.462 45.7849C40.5686 46.4248 40.142 47.0648 39.4488 47.1714C39.1821 47.2248 38.9155 47.1714 38.7022 47.0114L24.7305 39.8656L10.7054 47.0648C10.1188 47.3847 9.37225 47.1181 9.10561 46.5315C8.99896 46.2649 8.94563 46.0516 8.99896 45.7849L11.5053 30.2667L0.359958 19.1747C-0.119986 18.6947 -0.119986 17.9481 0.359958 17.4682C0.573267 17.2549 0.839903 17.1482 1.10654 17.0949L16.6247 14.6952L23.6639 0.67015C23.9839 0.0835516 24.6771 -0.183084 25.2637 0.136879C25.5304 0.243533 25.6904 0.456842 25.797 0.67015ZM31.0231 16.3483L24.7305 3.86978L18.4379 16.3483C18.2779 16.6683 17.9579 16.9349 17.5313 16.9883L3.71957 19.1213L13.6384 28.9869C13.9051 29.2535 14.065 29.6268 14.0117 30.0001L11.7186 43.8651L24.1972 37.4659C24.5172 37.3059 24.9438 37.3059 25.2637 37.4659L37.689 43.8651L35.4492 30.1067C35.3959 29.7334 35.5026 29.3068 35.7692 29.0402L45.688 19.1747L31.9296 17.0416C31.6097 16.9349 31.2364 16.7216 31.0231 16.3483Z" fill="#7936EF"/>
</svg>
