<svg width="34" height="35" viewBox="0 0 34 35" fill="none" xmlns="http://www.w3.org/2000/svg">
<path d="M32.9737 32.877C31.9056 32.877 30.8376 32.877 29.7696 32.877C27.2048 32.877 24.64 32.877 22.0752 32.877C18.9689 32.877 15.8701 32.877 12.7638 32.877C10.0786 32.877 7.40102 32.877 4.7159 32.877C3.82837 32.877 2.94085 32.877 2.05333 32.877C1.63966 32.877 1.21094 32.8394 0.804786 32.877C0.789743 32.877 0.767179 32.877 0.752136 32.877C1.00034 33.1252 1.25607 33.3809 1.50427 33.6291C1.50427 31.3501 1.50427 29.0637 1.50427 26.7847C1.50427 23.1669 1.50427 19.5416 1.50427 15.9238C1.50427 15.089 1.50427 14.2616 1.50427 13.4267C1.25607 13.6749 1.00034 13.9307 0.752136 14.1789C1.82017 14.1789 2.8882 14.1789 3.95624 14.1789C6.52102 14.1789 9.08581 14.1789 11.6506 14.1789C14.7569 14.1789 17.8557 14.1789 20.962 14.1789C23.6472 14.1789 26.3248 14.1789 29.0099 14.1789C29.8974 14.1789 30.7849 14.1789 31.6725 14.1789C32.0861 14.1789 32.5149 14.2165 32.921 14.1789C32.9361 14.1789 32.9586 14.1789 32.9737 14.1789C32.7255 13.9307 32.4697 13.6749 32.2215 13.4267C32.2215 15.7057 32.2215 17.9922 32.2215 20.2712C32.2215 23.889 32.2215 27.5142 32.2215 31.132C32.2215 31.9669 32.2215 32.7942 32.2215 33.6291C32.2215 34.5994 33.7258 34.5994 33.7258 33.6291C33.7258 31.3501 33.7258 29.0637 33.7258 26.7847C33.7258 23.1669 33.7258 19.5416 33.7258 15.9238C33.7258 15.089 33.7258 14.2616 33.7258 13.4267C33.7258 13.0206 33.3798 12.6746 32.9737 12.6746C31.9056 12.6746 30.8376 12.6746 29.7696 12.6746C27.2048 12.6746 24.64 12.6746 22.0752 12.6746C18.9689 12.6746 15.8701 12.6746 12.7638 12.6746C10.0786 12.6746 7.40102 12.6746 4.7159 12.6746C3.4147 12.6746 2.10598 12.6295 0.804786 12.6746C0.789743 12.6746 0.767179 12.6746 0.752136 12.6746C0.345983 12.6746 0 13.0206 0 13.4267C0 15.7057 0 17.9922 0 20.2712C0 23.889 0 27.5142 0 31.132C0 31.9669 0 32.7942 0 33.6291C0 34.0353 0.345983 34.3813 0.752136 34.3813C1.82017 34.3813 2.8882 34.3813 3.95624 34.3813C6.52102 34.3813 9.08581 34.3813 11.6506 34.3813C14.7569 34.3813 17.8557 34.3813 20.962 34.3813C23.6472 34.3813 26.3248 34.3813 29.0099 34.3813C30.3111 34.3813 31.6198 34.4264 32.921 34.3813C32.9361 34.3813 32.9586 34.3813 32.9737 34.3813C33.9439 34.3813 33.9439 32.877 32.9737 32.877Z" fill="black"/>
<path d="M1.4441 11.0564C2.97846 8.15316 4.50529 5.25743 6.03965 2.35419C6.25025 1.94803 6.46837 1.54188 6.67897 1.13573C6.46085 1.26359 6.24273 1.38393 6.03213 1.51179C8.5217 1.51179 11.0038 1.51179 13.4933 1.51179C17.4571 1.51179 21.4208 1.51179 25.3846 1.51179C26.2947 1.51179 27.2123 1.51179 28.1224 1.51179C27.9043 1.38393 27.6861 1.26359 27.4755 1.13573C28.8745 4.03145 30.281 6.92718 31.68 9.8229C31.8755 10.2366 32.0786 10.6427 32.2742 11.0564C32.4547 11.425 32.9737 11.5227 33.3046 11.3272C33.6807 11.1091 33.7484 10.6653 33.5754 10.2967C32.1764 7.40102 30.7699 4.5053 29.3709 1.60957C29.1754 1.1959 28.9723 0.789743 28.7767 0.376068C28.6639 0.142906 28.3781 0 28.1299 0C25.6403 0 23.1583 0 20.6687 0C16.7049 0 12.7412 0 8.77743 0C7.86734 0 6.94974 0 6.03965 0C5.78393 0 5.51316 0.142906 5.39281 0.376068C3.85093 3.27931 2.3241 6.17504 0.78974 9.07829C0.579142 9.48444 0.361022 9.89059 0.150424 10.2967C-0.308379 11.1467 0.992817 11.9138 1.4441 11.0564Z" fill="black"/>
<path d="M12.4629 13.5245C12.4629 16.1344 12.4629 18.7443 12.4629 21.3618C12.4629 21.7303 12.4629 22.1064 12.4629 22.4749C12.4629 23.1368 13.2827 23.4602 13.749 23.0089C14.975 21.813 16.201 20.6247 17.4345 19.4288C17.081 19.4288 16.7275 19.4288 16.374 19.4288C17.5774 20.6247 18.7808 21.813 19.9918 23.0089C20.4506 23.4677 21.2779 23.1293 21.2779 22.4749C21.2779 19.865 21.2779 17.2551 21.2779 14.6377C21.2779 14.2691 21.2779 13.8931 21.2779 13.5245C21.2779 12.5542 19.7737 12.5542 19.7737 13.5245C19.7737 16.1344 19.7737 18.7443 19.7737 21.3618C19.7737 21.7303 19.7737 22.1064 19.7737 22.4749C20.2024 22.2944 20.6311 22.1214 21.0598 21.9409C19.8564 20.745 18.653 19.5566 17.442 18.3607C17.1487 18.0749 16.6749 18.0749 16.3815 18.3607C15.1555 19.5566 13.9296 20.745 12.6961 21.9409C13.1248 22.1214 13.5535 22.2944 13.9822 22.4749C13.9822 19.865 13.9822 17.2551 13.9822 14.6377C13.9822 14.2691 13.9822 13.8931 13.9822 13.5245C13.9672 12.5542 12.4629 12.5542 12.4629 13.5245Z" fill="black"/>
</svg>
