<svg width="28" height="34" viewBox="0 0 28 34" fill="none" xmlns="http://www.w3.org/2000/svg">
<path d="M27.2825 6.71747L20.8807 0.242826C20.8058 0.166354 20.7164 0.105516 20.6178 0.0638384C20.5191 0.0221606 20.4132 0.000471216 20.3061 2.66911e-05H4.92883C4.28165 -0.00210659 3.64043 0.123657 3.042 0.370091C2.44357 0.616526 1.89974 0.978774 1.44173 1.43602C0.98373 1.89328 0.620588 2.43652 0.373171 3.03454C0.125753 3.63256 -0.001063 4.27357 6.71132e-06 4.92076V29.0874C6.71132e-06 30.3903 0.517587 31.6398 1.43889 32.5611C2.36018 33.4824 3.60973 34 4.91264 34H22.6046C23.9075 34 25.1571 33.4824 26.0784 32.5611C26.9997 31.6398 27.5172 30.3903 27.5172 29.0874V7.29209C27.5179 7.18558 27.4974 7.07999 27.4572 6.98139C27.4169 6.88278 27.3575 6.79309 27.2825 6.71747ZM25.8986 29.0874C25.8986 29.961 25.5515 30.7988 24.9338 31.4166C24.3161 32.0343 23.4782 32.3813 22.6046 32.3813H4.91264C4.03903 32.3813 3.20119 32.0343 2.58345 31.4166C1.96571 30.7988 1.61867 29.961 1.61867 29.0874V4.92076C1.61867 4.04714 1.96571 3.2093 2.58345 2.59156C3.20119 1.97382 4.03903 1.62678 4.91264 1.62678H19.9662L25.8986 7.61583V29.0874Z" fill="black"/>
<path d="M5.66534 8.50605C5.66534 8.72069 5.75061 8.92655 5.90239 9.07833C6.05417 9.23011 6.26003 9.31538 6.47467 9.31538H21.0426C21.2573 9.31538 21.4631 9.23011 21.6149 9.07833C21.7667 8.92655 21.852 8.72069 21.852 8.50605C21.852 8.2914 21.7667 8.08554 21.6149 7.93376C21.4631 7.78198 21.2573 7.69672 21.0426 7.69672H6.47467C6.26003 7.69672 6.05417 7.78198 5.90239 7.93376C5.75061 8.08554 5.66534 8.2914 5.66534 8.50605Z" fill="black"/>
<path d="M21.0426 13.3621H6.47467C6.26003 13.3621 6.05417 13.4473 5.90239 13.5991C5.75061 13.7509 5.66534 13.9567 5.66534 14.1714C5.66534 14.386 5.75061 14.5919 5.90239 14.7437C6.05417 14.8955 6.26003 14.9807 6.47467 14.9807H21.0426C21.2573 14.9807 21.4631 14.8955 21.6149 14.7437C21.7667 14.5919 21.852 14.386 21.852 14.1714C21.852 13.9567 21.7667 13.7509 21.6149 13.5991C21.4631 13.4473 21.2573 13.3621 21.0426 13.3621Z" fill="black"/>
<path d="M21.0426 19.0273H6.47467C6.26003 19.0273 6.05417 19.1126 5.90239 19.2644C5.75061 19.4162 5.66534 19.622 5.66534 19.8367C5.66534 20.0513 5.75061 20.2572 5.90239 20.409C6.05417 20.5607 6.26003 20.646 6.47467 20.646H21.0426C21.2573 20.646 21.4631 20.5607 21.6149 20.409C21.7667 20.2572 21.852 20.0513 21.852 19.8367C21.852 19.622 21.7667 19.4162 21.6149 19.2644C21.4631 19.1126 21.2573 19.0273 21.0426 19.0273Z" fill="black"/>
<path d="M13.7586 24.6927H6.47467C6.26003 24.6927 6.05417 24.778 5.90239 24.9297C5.75061 25.0815 5.66534 25.2874 5.66534 25.502C5.66534 25.7167 5.75061 25.9225 5.90239 26.0743C6.05417 26.2261 6.26003 26.3113 6.47467 26.3113H13.7586C13.9733 26.3113 14.1792 26.2261 14.3309 26.0743C14.4827 25.9225 14.568 25.7167 14.568 25.502C14.568 25.2874 14.4827 25.0815 14.3309 24.9297C14.1792 24.778 13.9733 24.6927 13.7586 24.6927Z" fill="black"/>
</svg>
