<?xml version="1.0" encoding="UTF-8"?>
<svg version="1.1" viewBox="0 0 1600 1600" width="1280" height="1280" xmlns="http://www.w3.org/2000/svg">
<path transform="translate(993 185)" d="m0 0c1.39-0 2.78-0 4.17-0.01h11.4c4.11 0 8.21-0.01 12.3-0.01 8.03-0.01 16.1-0.01 24.1-0.01 6.53 0 13.1-0.01 19.6-0.01 18.5-0.01 37.1-0.01 55.6-0.01h3.03 3.03c16.2 0 32.4-0.01 48.6-0.02 16.7-0.02 33.3-0.03 50-0.03 9.34 0.01 18.7 0 28-0.01 7.96-0.01 15.9-0.01 23.9 0 4.05 0 8.11 0 12.2-0.01 35.9-0.07 65.8 3 92.9 28.6 14.7 15.4 25.3 37.4 25.4 58.9 0.01 1.25 0.01 2.49 0.01 3.77v4.11c0.01 1.46 0.01 2.92 0.01 4.38 0.01 4.01 0.02 8.03 0.02 12 0.01 4.33 0.01 8.66 0.02 13 0.02 10.4 0.03 20.9 0.04 31.4 0.01 4.93 0.01 9.86 0.02 14.8 0.01 16.4 0.03 32.8 0.04 49.2v12.8 3.2c0.01 17.1 0.04 34.2 0.07 51.3 0.03 17.6 0.05 35.2 0.05 52.7 0.01 9.87 0.01 19.7 0.04 29.6 0.02 8.4 0.03 16.8 0.02 25.2 0 4.28 0 8.56 0.02 12.8 0.13 31.3-3.75 59.4-26.6 82.7-0.96 0.95-1.91 1.89-2.87 2.83l-2.09 2.09c-19.8 18.5-45.8 23.1-71.9 23h-4.2c-3.82 0.01-7.64 0.01-11.5 0.01-4.14 0-8.27 0-12.4 0.01-8.09 0.01-16.2 0.01-24.3 0.01-6.57 0-13.2 0-19.7 0.01-18.7 0.01-37.4 0.01-56 0.01h-3.05-3.05c-16.3 0-32.6 0.01-48.9 0.02-16.8 0.02-33.5 0.02-50.3 0.02-9.41 0-18.8 0-28.2 0.02-8.01 0-16 0.01-24 0-4.08 0-8.16 0-12.2 0.01-3.75 0-7.5 0-11.2-0.01-1.98 0-3.95 0.01-5.93 0.02-24.4-0.1-47.2-5.8-65.9-22.3-1.12-0.9-1.12-0.9-2.27-1.82-18.3-15.2-28.7-37.8-31-61.2-0.98-13.7-0.85-27.4-0.83-41.1 0-3.79-0.01-7.58-0.01-11.4v-22.2-18.1-2.62-5.26c0-16.4 0-32.8 0.01-49.2v-42.1c-0.01-16.3-0.01-32.7-0.01-49v-5.25-2.6-18-22c0.01-3.74 0.01-7.48 0-11.2-0.01-13.4 0.03-26.9 0.54-40.3 0.04-0.94 0.07-1.89 0.1-2.86 1.13-25.4 12-48.3 30.5-65.8 21.9-18.6 45-24.2 73-24.1zm-10 93.1v332c41.2 0.61 82.3 1.16 123 1.14h16.7 2.17 4.36c13.4 0 26.7 0 40-0.01h34.3c13.4 0.01 26.9 0.01 40.3 0.01h4.28 2.12 14.8 19.7c2.42-0.01 4.83-0.01 7.24 0 3.27 0 6.55 0 9.83-0.01 1.44 0 1.44 0 2.91 0.01 0.88-0.01 1.75-0.01 2.64-0.01h2.29c1.94-0.01 1.94-0.01 3.85-1.13v-332h-331z" fill="#000100"/>
<path transform="translate(305 185)" d="m0 0c4.09 0 8.17-0 12.3-0.01 7.98-0.01 16 0 24 0 6.5 0.01 13 0.01 19.5 0h2.81 5.65c17.6 0 35.3 0 52.9 0.01 15.1 0.01 30.2 0.01 45.3 0 17.6-0.01 35.2-0.01 52.7-0.01h5.64 2.8c6.48 0.01 13 0 19.4 0 7.9-0.01 15.8-0.01 23.7 0.01h12.1c32.4-0.05 61.5 1.06 87 23.3 0.6 0.46 1.2 0.91 1.81 1.38 16.8 13 26.6 35.7 29.3 56.1 0.96 7.75 1.2 15.4 1.17 23.2 0.01 1.4 0.01 2.81 0.01 4.21 0.01 3.81 0.01 7.62 0 11.4 0 4.13 0 8.26 0.01 12.4 0.01 8.07 0.01 16.1 0 24.2v19.7 2.84 5.71c0.01 17.8 0 35.6-0.01 53.4-0.01 15.3-0.01 30.5 0 45.8 0.01 17.8 0.02 35.5 0.01 53.3v5.68 2.83c-0.01 6.55 0 13.1 0 19.6 0.01 7.99 0.01 16 0 24-0.01 4.06-0.01 8.13 0 12.2 0 3.74 0 7.47-0.01 11.2-0.01 1.97 0 3.93 0.01 5.9-0.11 24.8-5.77 47.8-22.3 66.9-0.59 0.74-1.18 1.47-1.79 2.23-10.7 12.8-25.8 21.8-41.7 26.6-0.63 0.19-1.25 0.38-1.9 0.58-11.8 3.26-24 3.84-36.2 3.8-1.4 0.01-2.81 0.01-4.21 0.01-3.82 0.01-7.63 0.01-11.4 0.01-4.13 0-8.26 0-12.4 0.01-8.08 0.01-16.2 0.02-24.2 0.01-6.57 0-13.1 0-19.7 0.01h-2.84-5.72c-17.9 0.01-35.7 0.01-53.6 0.01-16.3-0.01-32.6 0-48.9 0.02-16.8 0.02-33.6 0.03-50.3 0.03-9.4-0.01-18.8 0-28.2 0.01-8.01 0.01-16 0.01-24 0-4.07 0-8.15-0.01-12.2 0.01-43.8 0.12-43.8 0.12-61.6-8.39-1.09-0.51-2.17-1.03-3.29-1.56-7.75-3.93-14.2-8.77-20.7-14.4-0.82-0.62-1.64-1.24-2.48-1.87-17.8-15-26-38.7-28.5-61.1-0.26-4.9-0.27-9.79-0.25-14.7-0.01-1.43-0.01-2.85-0.01-4.28-0.01-3.88-0.01-7.76 0-11.6 0-4.2 0-8.4-0.01-12.6-0.01-8.21-0.01-16.4 0-24.6v-20-2.89-5.8c-0.01-18.1 0-36.2 0.01-54.3 0.01-15.5 0.01-31 0-46.6-0.01-18.1-0.02-36.1-0.01-54.2v-5.78-2.87-20c-0.01-8.12-0.01-16.2 0-24.4 0.01-4.14 0.01-8.28 0-12.4 0-3.8 0-7.6 0.01-11.4 0.01-2.01 0-4.02-0.01-6.04 0.12-26.8 9.48-50.9 28.3-70 26-25.3 57.9-26.9 92.2-26.8zm-27.2 94.3c-0.1 1.76-0.12 3.53-0.12 5.29-0.01 1.16-0.01 2.31-0.01 3.5 0 1.29 0.01 2.57 0.01 3.9v4.1c-0.01 3.77 0 7.54 0 11.3 0.01 4.06 0.01 8.12 0.01 12.2v21.1c0.01 10.2 0.01 20.4 0.02 30.5 0 16.5 0 33 0.01 49.6 0.01 16 0.02 32.1 0.02 48.1 0.01 0.99 0.01 1.97 0.01 2.99v14.9c0.01 41.2 0.03 82.3 0.05 123 72 0.78 144 1.17 216 1.13h29.6c9.7 0.01 19.4 0.01 29.1 0.01 5.71-0.01 11.4-0.01 17.1 0 5.27 0 10.5 0 15.8-0.01h5.77c2.61 0.01 5.23 0 7.84 0 1.15 0 1.15 0 2.31 0.01 3.14-0.02 5.58-0.14 8.58-1.14 0.02-42.2 0.04-84.3 0.05-126v-14.9c0-0.99 0.01-1.98 0.01-3 0-16 0.01-32.1 0.02-48.1 0.01-16.4 0.01-32.9 0.01-49.4 0.01-10.2 0.01-20.3 0.02-30.5v-20.9c0-4.02 0-8.04 0.01-12.1v-11c0-1.97 0-3.94 0.01-5.92 0-1.15-0.01-2.31-0.01-3.5v-3.04c0.13-2.22 0.13-2.22-1.12-3.25-1.76-0.1-3.52-0.12-5.27-0.12-1.16-0.01-2.31-0.01-3.49-0.01h-3.88-4.09-11.3-12.1c-7.93-0.01-15.9-0.01-23.8 0h-19.3-2.77-5.58c-17.5-0.01-34.9 0-52.4 0-15 0.01-30 0.01-45 0-17.4 0-34.8-0.01-52.2 0h-5.55-2.77-19.3c-7.84-0.01-15.7-0.01-23.5 0h-12-11-5.9c-1.73 0-1.73 0-3.49 0.01h-3.03c-2.21-0.13-2.21-0.13-3.24 1.12z" fill="#000100"/>
<path transform="translate(282 890)" d="m0 0c1.46-0 2.92-0.01 4.38-0.01 3.98-0.01 7.95-0.01 11.9-0.01 4.3 0.01 8.61 0 12.9-0.01 8.42-0.01 16.8-0.01 25.2-0.01 6.85 0 13.7 0 20.5-0.01h2.96 5.95c18.6-0.01 37.2-0.01 55.8 0 17 0 34-0.01 50.9-0.03 17.5-0.02 34.9-0.03 52.4-0.02 9.79 0 19.6 0 29.4-0.02 8.34-0.01 16.7-0.01 25 0 4.24 0.01 8.49 0.01 12.7 0 3.9-0.01 7.8-0.01 11.7 0 1.4 0.01 2.8 0 4.2-0.01 26.5-0.14 49.6 9.18 68.6 27.6 10 10.3 17.3 22 22 35.6 0.36 1 0.36 1 0.72 2.01 5.65 17.4 4.2 36.6 4.17 54.7-0.01 4.13 0 8.26 0 12.4 0.01 8.06 0.01 16.1 0.01 24.2-0.01 6.56-0.01 13.1-0.01 19.7v2.84c0 1.9 0.01 3.81 0.01 5.71 0 17.8 0 35.6-0.02 53.4 0 15.2 0 30.5 0.01 45.8 0.01 17.8 0.01 35.5 0 53.3v5.68 2.83c0 6.54 0 13.1 0.01 19.6 0 7.99 0 16-0.01 24 0 4.07-0.01 8.14 0 12.2 0.01 3.74 0 7.47-0.01 11.2 0 1.96 0.01 3.93 0.01 5.9-0.05 12.1-0.81 24.6-4.89 36-0.39 1.11-0.39 1.11-0.78 2.25-8.8 24.2-26.7 41.9-49.6 52.8-13.9 6.42-27.6 8.1-42.8 8.05-1.46 0-2.92 0.01-4.38 0.01-3.98 0.01-7.96 0.01-11.9 0.01-4.3-0.01-8.61 0-12.9 0.01-8.42 0.01-16.8 0.02-25.3 0.01-6.85 0-13.7 0-20.6 0.01h-2.96-5.95c-18.6 0.01-37.2 0.01-55.8 0.01-17-0.01-34 0-51 0.02-17.5 0.02-34.9 0.03-52.4 0.02-9.8 0-19.6 0-29.4 0.02-8.33 0.01-16.7 0.01-25 0-4.25-0.01-8.5-0.01-12.8 0.01-3.9 0.01-7.8 0-11.7-0.01-1.41 0-2.81 0-4.21 0.01-26.6 0.14-48.8-10-68-28.1-2.13-2.29-2.13-2.29-2.13-4.29h-2c-16.3-19.9-22.3-43.2-22.3-68.6 0-1.43 0-2.85-0.01-4.28-0.01-3.89-0.01-7.77 0-11.7 0-4.2-0.01-8.4-0.01-12.6-0.02-8.22-0.02-16.4-0.02-24.7v-20.1-2.9c0-1.93-0.01-3.87-0.01-5.81-0.01-18.2-0.01-36.3 0-54.5 0.01-16.6-0.01-33.2-0.02-49.7-0.02-17.1-0.03-34.1-0.03-51.2 0-9.56 0-19.1-0.01-28.7-0.01-8.14-0.02-16.3 0-24.4 0-4.15 0-8.3-0.01-12.4-0.01-3.8-0.01-7.61 0.01-11.4 0-2.01-0.01-4.01-0.02-6.02 0.14-23.6 7.73-47.1 23.4-65.1h2c0.24-0.57 0.48-1.14 0.73-1.73 7.55-13.5 27.6-22.2 41.8-26.6 9.67-2.62 19.3-2.96 29.2-2.93zm-3.77 93.3v331c2.59 1.3 4.45 1.13 7.36 1.13h3.47 3.84 4.06c3.74 0.01 7.47 0 11.2 0 4.02 0 8.04 0 12.1 0.01h23.6c6.4-0.01 12.8-0.01 19.2-0.01h2.76c1.85 0.01 3.69 0.01 5.54 0.01 17.3 0 34.7 0 52-0.01h44.7c17.3 0.01 34.6 0.01 51.8 0.01 1.84 0 3.68-0.01 5.52-0.01h2.74c6.4 0 12.8 0 19.2 0.01 7.79 0 15.6 0 23.4-0.01h11.9c3.64 0.01 7.28 0 10.9 0h5.85 3.47 3.02c2.37 0.03 2.37 0.03 4.35-1.13v-331c-3.77-0.75-6.6-1.12-10.3-1.13h-3.22-3.52-3.76-10.3-11.1c-7.27-0.01-14.5-0.01-21.8 0h-17.8-2.55-5.14c-16.1-0.01-32.1 0-48.2 0-13.8 0.01-27.5 0-41.2 0-16-0.01-32-0.01-48 0h-5.13-2.55c-5.89 0-11.8 0-17.7-0.01-7.2 0-14.4 0-21.6 0.01h-11c-4-0.01-8 0-12 0h-3.41c-10.6 0.02-21 0.62-31.7 1.13z" fill="#000100"/>
<path transform="translate(1133 890)" d="m0 0c0.85 0 1.7 0 2.57 0.01 59.8 0.24 119 22.4 163 63.9 1.88 1.75 3.75 3.39 5.74 5.01 2.32 1.96 4.25 3.8 6.19 6.11 2.55 3.01 5.18 5.92 7.87 8.81 9.52 10.6 17.7 22.2 24.8 34.5 0.57 0.99 0.57 0.99 1.16 1.99 14.4 24.8 24.2 50.8 29.8 79 0.16 0.82 0.33 1.63 0.5 2.46 5.24 27.3 5.08 59.4-0.5 86.5-0.3 1.48-0.3 1.48-0.61 2.99-6.19 29.8-16.9 60.9-35.1 85.6-1.59 2.33-1.59 2.33-0.64 4.63 1.9 2.53 4.07 4.62 6.36 6.8 1.14 1.17 2.29 2.33 3.43 3.5 2.13 2.14 4.22 4.03 6.57 5.94 2.33 2 4.12 3.8 6.08 6.12 4.28 4.94 8.89 9.53 13.5 14.1 1.25 1.24 1.25 1.24 2.52 2.51 1.6 1.59 3.2 3.18 4.81 4.77 1.54 1.53 3.07 3.06 4.6 4.6 2.13 2.12 4.28 4.21 6.44 6.29 1.48 1.44 2.96 2.89 4.44 4.33 0.74 0.7 1.48 1.41 2.24 2.13 10.1 9.89 15.8 21.3 16.5 35.4-0.18 10.8-3.77 20.6-10.2 29.2-0.41 0.57-0.82 1.13-1.24 1.71-4.07 5.24-8.89 8.31-14.8 11.3-0.79 0.42-1.58 0.84-2.39 1.26-10.7 4.79-24.9 4.56-35.8 0.68-12-4.97-21-15.8-29.9-24.8l-4.34-4.34c-3.77-3.79-7.54-7.58-11.3-11.4-3.86-3.88-7.73-7.75-11.6-11.6-7.56-7.59-15.1-15.2-22.7-22.8-1.59 0.79-3.18 1.58-4.76 2.37-0.89 0.44-1.77 0.87-2.68 1.33-3.45 1.75-6.78 3.67-10.1 5.61-28.2 16-58.4 25.3-90.4 29.7-0.74 0.11-1.48 0.21-2.23 0.32-9.12 1.11-18.4 0.93-27.5 0.93h-2.78c-13.7-0.01-27-0.5-40.5-3.25-0.87-0.16-1.74-0.33-2.64-0.5-21.3-4.12-41.9-11-61.4-20.5-0.65-0.31-1.29-0.63-1.95-0.95-15.4-7.67-29.6-17.3-43-28-0.84-0.63-1.68-1.27-2.55-1.92-15-11.6-28.3-25.8-39.4-41.1-0.68-0.88-1.36-1.76-2.05-2.67-9.91-13.1-18-27.5-25-42.3-0.31-0.64-0.61-1.29-0.93-1.96-10.7-22.9-16.7-47.1-20.1-72-0.19-1.29-0.38-2.58-0.57-3.92-0.81-7.67-0.68-15.4-0.69-23.1v-2.56c0.02-14 0.71-27.6 3.26-41.4 0.24-1.33 0.24-1.33 0.48-2.69 6.74-35.8 21.3-70.4 43.5-99.3 0.85-1.14 1.71-2.28 2.57-3.43 6.88-9.07 14.5-17.4 22.4-25.6 0.62-0.66 1.25-1.32 1.9-1.99 0.63-0.65 1.25-1.29 1.89-1.95 0.57-0.58 1.13-1.17 1.72-1.77 1.49-1.29 1.49-1.29 3.49-1.29v-2c12.2-11.8 27.5-21.7 42.2-30 1.73-0.98 3.45-1.98 5.17-2.98 20.9-11.9 44.3-19.4 67.8-24.3 0.72-0.15 1.45-0.3 2.19-0.46 14.8-2.87 29.7-3.67 44.8-3.6zm-114 145c-28.3 31.7-38.2 72.7-36 114 0.49 6.13 1.51 12 3 18 0.16 0.69 0.33 1.37 0.5 2.08 6.46 25.9 19 48.5 36.9 68.2 0.78 0.86 0.78 0.86 1.58 1.74 1.28 1.38 2.63 2.7 3.99 4.01h2v2c2 1.78 4 3.43 6.12 5.07 0.95 0.73 0.95 0.73 1.92 1.48 11.2 8.58 23.1 15.6 36 21.4 0.61 0.28 1.23 0.56 1.86 0.85 35.9 15.9 77.1 13.6 113 0.12 19.7-7.72 37-20.1 51.9-35 0.93-0.92 1.86-1.84 2.82-2.79 27.6-28.6 40.5-68 40.2-107-1.27-40.2-18.9-78.1-47.7-106-19.9-17.8-43.2-30.8-69.3-37-0.65-0.16-1.29-0.32-1.96-0.49-54.6-13.3-110 9.35-147 49.3z" fill="#000100"/>
</svg>
