<svg width="33" height="33" viewBox="0 0 33 33" fill="none" xmlns="http://www.w3.org/2000/svg">
<path d="M14.3019 6.37529e-07C13.8461 -0.000520414 13.595 0.318441 13.4877 0.624124L12.5107 3.98925C11.8072 4.21513 11.1465 4.52324 10.5025 4.85767L7.40878 3.12083C7.07904 2.94567 6.63728 3.01549 6.37753 3.28366L3.28379 6.35032C3.01197 6.62014 2.95309 7.079 3.14805 7.40865L4.8578 10.4753C4.52945 11.1084 4.26727 11.793 4.04365 12.4835L0.624251 13.4605C0.264465 13.5659 -0.00335507 13.927 3.17649e-05 14.3017V18.6711C3.17649e-05 19.0459 0.264465 19.4069 0.624251 19.5123L4.01647 20.4893C4.24131 21.1892 4.52545 21.8564 4.8578 22.4975L3.14805 25.5913C2.9662 25.9155 3.02422 26.3565 3.28379 26.6225L6.37753 29.6891C6.63719 29.9573 7.07904 30.0271 7.40878 29.852L10.5025 28.1151C11.1465 28.4495 11.8073 28.7576 12.5107 28.9836L13.4877 32.3487C13.5807 32.7097 13.9292 32.9884 14.3019 33H18.6982C19.0708 32.9887 19.4193 32.7097 19.5124 32.3487L20.4894 28.9836C21.1927 28.7576 21.8536 28.4495 22.4976 28.1151L25.5913 29.852C25.921 30.0271 26.3628 29.9573 26.6226 29.6891L29.7163 26.6225C29.9758 26.3565 30.0338 25.9155 29.852 25.5913L28.1423 22.4975C28.4746 21.8564 28.7587 21.1892 28.9835 20.4893L32.3758 19.5123C32.7355 19.4069 33.0034 19.0459 33 18.6711V14.3017C33 13.927 32.7355 13.5659 32.3758 13.4605L28.9564 12.4835C28.7327 11.793 28.4706 11.1084 28.1423 10.4753L29.852 7.40865C30.0469 7.079 29.988 6.62014 29.7163 6.35032L26.6226 3.28366C26.3627 3.01549 25.921 2.94567 25.5913 3.12083L22.4976 4.85767C21.8536 4.52324 21.1928 4.21513 20.4894 3.98925L19.5124 0.624124C19.4096 0.273109 19.0639 0.00816378 18.6982 6.37529e-07H14.3019ZM14.9532 1.73684H18.0469L18.9424 4.88486C19.0232 5.16753 19.2568 5.40131 19.5395 5.4819C20.4537 5.73374 21.3059 6.10551 22.1176 6.56742C22.3802 6.71896 22.7234 6.71896 22.9861 6.56742L25.8627 4.96622L28.0066 7.11019L26.4055 10.0139C26.2718 10.2746 26.2824 10.6038 26.4324 10.8552C26.8942 11.667 27.2389 12.5461 27.4907 13.4605C27.5758 13.7495 27.8224 13.9851 28.1149 14.0575L31.263 14.953V18.0198L28.1149 18.9153C27.816 18.9926 27.5678 19.2406 27.4907 19.5395C27.2388 20.4538 26.8941 21.306 26.4324 22.1176C26.2822 22.3691 26.2716 22.6983 26.4055 22.9589L28.0338 25.8627L25.8627 28.0066L22.9861 26.4054C22.7234 26.2539 22.3802 26.2539 22.1176 26.4054C21.3059 26.8673 20.4538 27.239 19.5395 27.491C19.2568 27.5717 19.023 27.8054 18.9424 28.088L18.0469 31.2632H14.9532L14.0576 28.088C13.9768 27.8054 13.7432 27.5716 13.4605 27.491C12.5462 27.239 11.6941 26.8673 10.8825 26.4054C10.6198 26.2539 10.2766 26.2539 10.014 26.4054L7.1374 28.0066L4.96635 25.8627L6.59464 22.9589C6.7282 22.6983 6.71752 22.3691 6.56772 22.1176C6.10589 21.306 5.76121 20.4538 5.50929 19.5395C5.432 19.2406 5.18398 18.9923 4.88515 18.9153L1.73704 18.0198V14.953L4.88507 14.0575C5.17755 13.9855 5.42392 13.7495 5.50929 13.4605C5.76113 12.5461 6.1058 11.667 6.56763 10.8552C6.71778 10.6038 6.72837 10.2746 6.59455 10.0139L4.99344 7.11019L7.13731 4.96622L10.014 6.56742C10.2765 6.71896 10.6198 6.71896 10.8824 6.56742C11.6941 6.10551 12.5463 5.73374 13.4605 5.4819C13.7431 5.40114 13.9769 5.16753 14.0576 4.88486L14.9532 1.73684ZM16.5 10.421C13.1529 10.421 10.4211 13.153 10.4211 16.5C10.4211 19.847 13.1529 22.579 16.5 22.579C19.8471 22.579 22.5789 19.847 22.5789 16.5C22.5789 13.153 19.8471 10.421 16.5 10.421ZM16.5 12.1579C18.9084 12.1579 20.8421 14.0916 20.8421 16.5C20.8421 18.9084 18.9084 20.8421 16.5 20.8421C14.0916 20.8421 12.1579 18.9084 12.1579 16.5C12.1579 14.0916 14.0916 12.1579 16.5 12.1579Z" fill="black"/>
</svg>
