<svg width="67" height="66" viewBox="0 0 67 66" fill="none" xmlns="http://www.w3.org/2000/svg">
<path d="M33.5011 1.26397e-07C33.329 -8.03003e-05 33.1592 0.0382219 33.0043 0.11204L17.2739 7.62888L17.2783 7.63526C17.0864 7.72688 16.9243 7.86974 16.8105 8.04762C16.6967 8.2255 16.6357 8.43128 16.6345 8.64161V28.1555L1.59252 35.3516C1.58505 35.3552 1.57762 35.3589 1.57023 35.3626L1.54575 35.3737C1.35321 35.464 1.19243 35.608 1.07745 35.7851C0.962471 35.9622 0.900116 36.1675 0.897461 36.3778V56.6015C0.897814 56.8134 0.958853 57.0209 1.07355 57.2001C1.18824 57.3794 1.35193 57.523 1.54576 57.6145L17.2739 65.1291C17.4288 65.203 17.5986 65.2414 17.7707 65.2414C17.9428 65.2414 18.1126 65.203 18.2675 65.1291L33.5011 57.8518L48.7413 65.1291C48.8962 65.203 49.0661 65.2414 49.2381 65.2414C49.4102 65.2414 49.5801 65.203 49.7349 65.1291L65.4631 57.6145C65.6552 57.5218 65.8171 57.3776 65.9301 57.1985C66.0432 57.0194 66.1029 56.8125 66.1025 56.6016V36.3779C66.0992 36.1695 66.0372 35.966 65.9236 35.7903C65.8099 35.6145 65.6489 35.4734 65.4586 35.3826L65.4629 35.3736L50.3742 28.1556V8.6417C50.3729 8.43137 50.312 8.22559 50.1982 8.04771C50.0844 7.86983 49.9223 7.72698 49.7303 7.63536L49.7346 7.62898L33.9976 0.112133C33.8428 0.0383245 33.673 -8.6245e-06 33.5011 1.26397e-07ZM33.5011 2.37085L46.6227 8.64184L33.5011 14.9194L20.3839 8.64184L33.5011 2.37085ZM18.9158 10.4436L32.3627 16.8706V34.5872L18.9158 28.158V10.4436ZM48.0931 10.4436V28.158L34.6462 34.585V16.8684L48.0931 10.4436ZM17.7707 30.1091L29.8119 35.866L30.8923 36.3823L17.7707 42.6577L4.6513 36.3823L17.7707 30.1091ZM49.2381 30.1091L62.3576 36.3823L49.2381 42.6577L36.1098 36.3823L38.2195 35.3738L49.2381 30.1091ZM3.18095 38.1731L16.6345 44.6111V62.3276L3.18095 55.894V38.1731ZM32.3627 38.1731V55.894L18.9158 62.3232V44.6067L32.3627 38.1731ZM63.8279 38.1731V55.894L50.3743 62.3276V44.6111L63.8279 38.1731ZM34.6462 38.182L48.0931 44.6068V62.3234L34.6462 55.894V38.182Z" fill="#00E85D"/>
</svg>
