<svg width="42" height="42" viewBox="0 0 42 42" fill="none" xmlns="http://www.w3.org/2000/svg">
<path d="M3 0H33.7574C34.553 0 35.3161 0.31607 35.8787 0.878679L41.1213 6.12132C41.6839 6.68393 42 7.44699 42 8.24264V39C42 40.6569 40.6569 42 39 42H3C1.34315 42 0 40.6569 0 39V3C0 1.34315 1.34315 0 3 0ZM9 3H4C3.44772 3 3 3.44772 3 4V38C3 38.5523 3.44772 39 4 39H38C38.5523 39 39 38.5523 39 38V8.65685C39 8.39164 38.8946 8.13729 38.7071 7.94975L34.0503 3.29289C33.8627 3.10536 33.6084 3 33.3431 3H32.8787C32.3934 3 32 3.3934 32 3.87868V11C32 12.6569 30.6569 14 29 14H13C11.3431 14 10 12.6569 10 11V4C10 3.44772 9.55228 3 9 3ZM21 18C25.6944 18 29.5 21.8056 29.5 26.5C29.5 31.1944 25.6944 35 21 35C16.3056 35 12.5 31.1944 12.5 26.5C12.5 21.8056 16.3056 18 21 18ZM21 21C17.9624 21 15.5 23.4624 15.5 26.5C15.5 29.5376 17.9624 32 21 32C24.0376 32 26.5 29.5376 26.5 26.5C26.5 23.4624 24.0376 21 21 21ZM14 11H28C28.5523 11 29 10.5523 29 10V4C29 3.44772 28.5523 3 28 3H14C13.4477 3 13 3.44772 13 4V10C13 10.5523 13.4477 11 14 11Z" fill="white"/>
</svg>
