<svg width="36" height="35" viewBox="0 0 36 35" fill="none" xmlns="http://www.w3.org/2000/svg">
<path d="M17.9627 1.6098C18.7108 1.6098 19.456 1.85494 20.0221 2.3519L33.6359 14.2843C34.7675 15.274 34.4623 16.0883 32.9575 16.0883H31.1378V32.4824H22.2368V21.0172H13.6885V32.4824H4.78755V16.0883H2.96841C1.46298 16.0883 1.15837 15.274 2.28942 14.2843L15.9044 2.35129C16.47 1.85494 17.2151 1.6098 17.9627 1.6098ZM17.9627 0C16.7934 0 15.6836 0.402904 14.845 1.14136L1.22997 13.0744C-0.294268 14.4075 -0.0430592 15.652 0.133515 16.1235C0.312516 16.5974 0.944785 17.6975 2.96841 17.6975H3.17957V32.4818V34.091H4.78755H13.6885H15.2977V32.4818V22.6252H20.627V32.4818V34.091H22.2362H31.1372H32.7463V32.4818V17.6975H32.9569C34.9811 17.6975 35.6122 16.5974 35.7912 16.1235C35.9678 15.652 36.219 14.4075 34.6947 13.0744L21.0803 1.14136C20.2417 0.402904 19.1319 0 17.9627 0Z" fill="black"/>
</svg>
